<?xml version="1.0" encoding="utf-8"?>
<!-- Generator: Adobe Illustrator 21.1.0, SVG Export Plug-In . SVG Version: 6.00 Build 0)  -->
<svg version="1.1" id="Capa_1" xmlns="http://www.w3.org/2000/svg" xmlns:xlink="http://www.w3.org/1999/xlink" x="0px" y="0px"
	 viewBox="0 0 273.9 273.9" style="enable-background:new 0 0 273.9 273.9;" xml:space="preserve">
<style type="text/css">
	.st0{fill:#FF9366;}
	.st1{fill:#B3A16B;}
</style>
<g>
	<g>
		<path class="st0" d="M16.2,173.8h50.3v-13H32.3l98.1-88.9c3.3-3,9.7-3,13,0l98.1,88.9h-34.8v13h50.9c6.3,0,9.2-1.7,9.8-3.2
			c0.7-1.8-1-4.8-4.4-7.9L152.2,62.2c-2.1-1.9-4.7-3.4-7.6-4.4l-1.4-0.5l-0.2-1.5c-0.2-1.8-1.2-4.1-4.5-5
			c-10.1-2.7-17.4-8-19.7-14.2c-1.7-4.6-0.7-9.5,2.9-14.5c4.3-6,10.6-9.3,17.7-9.3c6.3,0,12.7,2.6,17.9,7.2c1.3,1.2,2.8,1.8,4.3,1.8
			c2.8,0,5.7-2,6.8-4.7c0.6-1.5,0.8-3.9-1.7-6.1C158.8,3.9,149,0,139.1,0c-11.9,0-22.2,5.6-28.8,15.8c-5.5,8.5-6.8,18.4-3.5,26.5
			c2.7,6.5,7.6,11.8,14.7,15.7l3,1.7l-2.6,2.2l-1.7-1.6l0,0l1.3,1.9L10.8,162.6c-3.5,3.1-5.1,6.1-4.4,7.9
			C7,172.1,9.9,173.8,16.2,173.8z"/>
		<path class="st1" d="M200.1,174.4v-9.6v-9.6v-19.5h-127v19.5v9.6v9.6v99.4l127-14.3L200.1,174.4L200.1,174.4z M185.8,155.2v9.6
			v9.6v72.3l-98.4,11.1v-83.4v-9.6v-9.6V150h98.4V155.2z"/>
	</g>
</g>
</svg>
